<?xml version="1.0" encoding="UTF-8"?>
<!-- Generator: visioncortex VTracer 0.6.3 -->
<svg version="1.1" xmlns="http://www.w3.org/2000/svg" width="1280" height="1280">
<path d="M0 0 C1.63 -0 3.25 -0 4.88 -0.01 C9.33 -0.01 13.79 -0.01 18.25 -0 C23.1 0 27.95 -0 32.8 -0.01 C41.3 -0.01 49.8 -0.01 58.3 -0 C70.94 0.01 83.58 0.01 96.22 0 C117.49 -0.01 138.75 -0 160.02 0.01 C181.07 0.02 202.12 0.02 223.18 0.02 C224.49 0.02 225.8 0.02 227.15 0.02 C233.13 0.02 239.11 0.02 245.09 0.02 C259.28 0.02 273.46 0.02 287.65 0.02 C288.32 0.02 289 0.02 289.7 0.02 C311.24 0.02 332.79 0.03 354.34 0.03 C355.04 0.03 355.74 0.03 356.46 0.03 C367.8 0.04 379.15 0.04 390.5 0.04 C435.53 0.06 480.57 0.06 525.6 0.06 C527.03 0.06 528.45 0.06 529.88 0.06 C532.72 0.06 535.57 0.06 538.41 0.06 C544.79 0.06 551.17 0.06 557.55 0.06 C558.96 0.06 560.38 0.06 561.79 0.06 C599.5 0.06 637.21 0.07 674.93 0.07 C676.9 0.07 676.9 0.07 678.91 0.07 C684.2 0.08 689.49 0.08 694.78 0.08 C713.22 0.08 731.65 0.08 750.09 0.08 C773.83 0.08 797.58 0.09 821.32 0.1 C833.89 0.1 846.46 0.1 859.02 0.1 C867.4 0.1 875.78 0.1 884.16 0.11 C888.94 0.11 893.73 0.12 898.51 0.11 C902.86 0.11 907.2 0.11 911.54 0.12 C913.11 0.12 914.68 0.12 916.25 0.12 C918.37 0.11 920.48 0.12 922.6 0.12 C923.77 0.12 924.95 0.12 926.16 0.12 C928.77 0.25 928.77 0.25 929.77 1.25 C932.45 1.54 935.12 1.7 937.81 1.87 C941.01 2.28 943.73 3.19 946.77 4.25 C948.85 4.73 950.93 5.19 953.02 5.62 C958.03 6.75 962.61 8.21 967.33 10.23 C969.84 11.28 972.37 12.14 974.96 13 C986.99 17.35 998 24.44 1008.77 31.25 C1009.84 31.91 1010.92 32.56 1012.02 33.24 C1013.03 33.86 1014.04 34.48 1015.08 35.12 C1015.98 35.68 1016.89 36.23 1017.82 36.8 C1018.46 37.28 1019.11 37.76 1019.77 38.25 C1019.77 38.91 1019.77 39.57 1019.77 40.25 C1020.33 40.32 1020.9 40.39 1021.48 40.47 C1024.61 41.54 1026.13 43.36 1028.39 45.75 C1031.27 48.92 1031.27 48.92 1034.77 51.25 C1034.77 51.91 1034.77 52.57 1034.77 53.25 C1035.35 53.5 1035.92 53.74 1036.52 54 C1039.1 55.43 1040.83 57.03 1042.77 59.25 C1042.77 59.91 1042.77 60.57 1042.77 61.25 C1043.43 61.25 1044.09 61.25 1044.77 61.25 C1046.35 62.82 1046.35 62.82 1048.14 64.94 C1048.76 65.66 1049.38 66.39 1050.01 67.14 C1050.59 67.84 1051.17 68.53 1051.77 69.25 C1052.57 70.2 1053.38 71.15 1054.21 72.12 C1055.77 74.25 1055.77 74.25 1055.77 76.25 C1056.43 76.25 1057.09 76.25 1057.77 76.25 C1057.77 77.24 1057.77 78.23 1057.77 79.25 C1058.43 79.25 1059.09 79.25 1059.77 79.25 C1061.28 81.3 1061.28 81.3 1063.02 84.12 C1063.64 85.13 1064.26 86.13 1064.9 87.16 C1065.51 88.18 1066.13 89.2 1066.77 90.25 C1067.31 91.14 1067.86 92.04 1068.42 92.96 C1069.88 95.38 1071.33 97.81 1072.77 100.25 C1073.14 100.88 1073.51 101.5 1073.89 102.15 C1077.91 109.06 1081.11 115.92 1083.76 123.46 C1084.71 126.09 1085.75 128.67 1086.83 131.25 C1088.94 136.47 1090.42 141.78 1091.77 147.25 C1091.96 148.02 1092.16 148.8 1092.36 149.59 C1093.53 154.47 1094.14 159.28 1094.52 164.28 C1094.56 166.25 1094.56 166.25 1095.77 167.25 C1095.87 169.31 1095.89 171.37 1095.89 173.43 C1095.89 174.09 1095.89 174.75 1095.9 175.42 C1095.9 177.66 1095.89 179.9 1095.89 182.13 C1095.89 183.74 1095.89 185.36 1095.89 186.97 C1095.9 191.44 1095.89 195.92 1095.89 200.39 C1095.89 205.24 1095.89 210.09 1095.89 214.94 C1095.89 223.46 1095.89 231.97 1095.89 240.49 C1095.88 253.15 1095.88 265.81 1095.88 278.47 C1095.88 299.77 1095.88 321.07 1095.87 342.36 C1095.87 363.46 1095.86 384.56 1095.86 405.66 C1095.86 406.97 1095.86 408.28 1095.86 409.63 C1095.86 415.61 1095.86 421.59 1095.86 427.58 C1095.86 441.78 1095.86 455.97 1095.86 470.17 C1095.86 470.85 1095.86 471.53 1095.86 472.22 C1095.86 505.17 1095.85 538.12 1095.84 571.07 C1095.84 582.51 1095.84 593.95 1095.84 605.38 C1095.84 606.09 1095.84 606.8 1095.84 607.53 C1095.83 640.49 1095.83 673.46 1095.82 706.42 C1095.82 708.56 1095.82 710.7 1095.82 712.83 C1095.82 727.01 1095.82 741.19 1095.82 755.37 C1095.82 783.57 1095.81 811.78 1095.81 839.99 C1095.81 841.34 1095.81 842.68 1095.81 844.02 C1095.8 933.43 1095.78 1022.84 1095.77 1112.25 C1095.11 1112.25 1094.45 1112.25 1093.77 1112.25 C1093.81 1113.04 1093.86 1113.82 1093.91 1114.64 C1094.2 1123.29 1092.6 1130.13 1089.77 1138.25 C1089.44 1139.39 1089.12 1140.53 1088.78 1141.71 C1087.08 1147.66 1084.91 1153.44 1082.77 1159.25 C1082.44 1160.15 1082.11 1161.06 1081.76 1161.99 C1077.92 1172.05 1072.34 1181.11 1066.66 1190.21 C1065.5 1192.08 1064.35 1193.96 1063.22 1195.85 C1062.12 1197.68 1060.95 1199.47 1059.77 1201.25 C1059.11 1201.25 1058.45 1201.25 1057.77 1201.25 C1057.77 1202.24 1057.77 1203.23 1057.77 1204.25 C1057.11 1204.25 1056.45 1204.25 1055.77 1204.25 C1055.52 1204.79 1055.27 1205.32 1055.02 1205.87 C1053.46 1208.83 1051.73 1211.55 1049.77 1214.25 C1049.11 1214.25 1048.45 1214.25 1047.77 1214.25 C1047.77 1214.91 1047.77 1215.57 1047.77 1216.25 C1046.39 1217.87 1046.39 1217.87 1044.77 1219.25 C1044.11 1219.25 1043.45 1219.25 1042.77 1219.25 C1042.44 1220.24 1042.11 1221.23 1041.77 1222.25 C1041.11 1222.25 1040.45 1222.25 1039.77 1222.25 C1039.77 1222.91 1039.77 1223.57 1039.77 1224.25 C1039.11 1224.25 1038.45 1224.25 1037.77 1224.25 C1037.44 1225.24 1037.11 1226.23 1036.77 1227.25 C1036.11 1227.25 1035.45 1227.25 1034.77 1227.25 C1034.77 1227.91 1034.77 1228.57 1034.77 1229.25 C1033.39 1230.87 1033.39 1230.87 1031.77 1232.25 C1031.11 1232.25 1030.45 1232.25 1029.77 1232.25 C1029.77 1232.91 1029.77 1233.57 1029.77 1234.25 C1028.03 1235.69 1026.23 1237.06 1024.39 1238.37 C1023.4 1239.1 1022.4 1239.82 1021.37 1240.57 C1018.77 1242.25 1018.77 1242.25 1016.77 1242.25 C1016.77 1242.91 1016.77 1243.57 1016.77 1244.25 C1014.98 1245.23 1013.19 1246.2 1011.4 1247.18 C1009.6 1248.16 1009.6 1248.16 1008.77 1250.25 C1006.97 1251.25 1005.13 1252.17 1003.27 1253.06 C999.59 1254.85 995.95 1256.66 992.39 1258.69 C983.05 1263.91 974 1268.49 963.66 1271.41 C961.22 1272.12 958.93 1272.92 956.58 1273.87 C952.74 1275.38 948.83 1276.11 944.77 1276.82 C942.78 1277.06 942.78 1277.06 941.77 1278.25 C938.67 1278.57 935.57 1278.76 932.46 1278.97 C929.85 1278.95 929.85 1278.95 928.77 1280.25 C926.71 1280.35 924.66 1280.37 922.6 1280.38 C921.94 1280.38 921.29 1280.38 920.61 1280.38 C918.38 1280.38 916.15 1280.38 913.92 1280.38 C912.31 1280.38 910.7 1280.38 909.1 1280.38 C904.63 1280.39 900.17 1280.39 895.71 1280.38 C890.87 1280.38 886.03 1280.39 881.19 1280.39 C872.69 1280.39 864.2 1280.4 855.7 1280.4 C843.07 1280.39 830.44 1280.4 817.8 1280.4 C793.93 1280.41 770.05 1280.42 746.18 1280.42 C727.74 1280.42 709.3 1280.42 690.87 1280.42 C685.57 1280.42 680.27 1280.42 674.97 1280.42 C673.65 1280.42 672.33 1280.42 670.97 1280.42 C633.89 1280.43 596.81 1280.44 559.72 1280.43 C558.31 1280.43 556.89 1280.43 555.48 1280.43 C549.1 1280.43 542.72 1280.43 536.33 1280.43 C533.49 1280.43 530.64 1280.43 527.8 1280.43 C526.37 1280.43 524.95 1280.43 523.52 1280.43 C478.49 1280.43 433.47 1280.44 388.44 1280.45 C377.1 1280.46 365.76 1280.46 354.42 1280.46 C353.72 1280.47 353.03 1280.47 352.31 1280.47 C330.78 1280.47 309.26 1280.48 287.74 1280.48 C287.06 1280.48 286.39 1280.48 285.69 1280.48 C271.52 1280.48 257.35 1280.48 243.18 1280.48 C236.55 1280.48 229.91 1280.48 223.27 1280.48 C221.32 1280.48 221.32 1280.48 219.32 1280.48 C198.28 1280.48 177.25 1280.48 156.21 1280.49 C135.07 1280.5 113.93 1280.5 92.79 1280.5 C80.23 1280.49 67.67 1280.49 55.1 1280.5 C46.71 1280.51 38.32 1280.51 29.93 1280.5 C25.15 1280.5 20.36 1280.5 15.58 1280.5 C11.23 1280.51 6.87 1280.51 2.52 1280.5 C0.96 1280.5 -0.6 1280.5 -2.16 1280.51 C-13.07 1280.54 -24.04 1280.52 -34.23 1276.25 C-36.29 1275.76 -38.35 1275.3 -40.42 1274.87 C-45.51 1273.74 -50.14 1272.25 -54.93 1270.2 C-57.06 1269.32 -59.15 1268.65 -61.36 1268 C-68.01 1265.85 -74.14 1262.4 -80.34 1259.21 C-83.69 1257.51 -87.1 1255.93 -90.51 1254.35 C-92.23 1253.25 -92.23 1253.25 -93.23 1250.25 C-94.56 1249.88 -95.89 1249.56 -97.23 1249.25 C-99.18 1248.16 -101.1 1247.01 -102.98 1245.81 C-103.97 1245.19 -104.95 1244.58 -105.97 1243.94 C-107.09 1243.1 -107.09 1243.1 -108.23 1242.25 C-108.23 1241.59 -108.23 1240.93 -108.23 1240.25 C-108.79 1240 -109.35 1239.75 -109.92 1239.49 C-123.02 1232.45 -135.7 1218.27 -144.23 1206.25 C-144.23 1205.59 -144.23 1204.93 -144.23 1204.25 C-144.89 1204.25 -145.55 1204.25 -146.23 1204.25 C-147.49 1202.67 -147.49 1202.67 -148.92 1200.44 C-149.44 1199.62 -149.96 1198.81 -150.5 1197.97 C-151.36 1196.62 -151.36 1196.62 -152.23 1195.25 C-152.88 1194.28 -153.52 1193.31 -154.18 1192.31 C-154.82 1191.34 -155.45 1190.37 -156.11 1189.37 C-156.7 1188.47 -157.3 1187.56 -157.91 1186.63 C-159.23 1184.25 -159.23 1184.25 -159.23 1181.25 C-159.89 1181.25 -160.55 1181.25 -161.23 1181.25 C-169.62 1164.35 -176.47 1148.02 -180.47 1129.57 C-181.06 1126.39 -181.06 1126.39 -182.23 1124.25 C-184.31 1114.51 -184.52 1104.82 -184.48 1094.91 C-184.48 1093.28 -184.49 1091.66 -184.49 1090.03 C-184.5 1085.58 -184.49 1081.13 -184.48 1076.68 C-184.48 1071.84 -184.48 1066.99 -184.49 1062.14 C-184.49 1053.65 -184.49 1045.16 -184.48 1036.67 C-184.47 1024.05 -184.48 1011.42 -184.48 998.8 C-184.49 977.56 -184.48 956.32 -184.47 935.08 C-184.47 914.05 -184.46 893.02 -184.46 871.99 C-184.46 870.69 -184.46 869.38 -184.46 868.03 C-184.46 862.72 -184.46 857.42 -184.46 852.11 C-184.46 837.27 -184.46 822.43 -184.46 807.6 C-184.46 806.92 -184.46 806.25 -184.46 805.55 C-184.46 784.03 -184.45 762.51 -184.45 740.99 C-184.45 740.29 -184.45 739.59 -184.45 738.87 C-184.44 727.54 -184.44 716.2 -184.44 704.87 C-184.42 659.89 -184.42 614.91 -184.42 569.93 C-184.42 568.51 -184.42 567.09 -184.42 565.66 C-184.42 562.82 -184.42 559.98 -184.42 557.14 C-184.42 550.77 -184.42 544.39 -184.42 538.02 C-184.42 536.61 -184.42 535.2 -184.42 533.79 C-184.42 496.12 -184.41 458.45 -184.41 420.78 C-184.41 419.47 -184.41 418.15 -184.41 416.8 C-184.41 411.52 -184.41 406.23 -184.4 400.95 C-184.4 382.53 -184.4 364.12 -184.4 345.71 C-184.4 321.99 -184.39 298.28 -184.38 274.56 C-184.38 262.01 -184.38 249.46 -184.38 236.91 C-184.38 228.54 -184.38 220.17 -184.37 211.8 C-184.37 207.02 -184.37 202.24 -184.37 197.47 C-184.37 193.13 -184.37 188.79 -184.36 184.45 C-184.36 182.89 -184.36 181.32 -184.36 179.75 C-184.37 177.64 -184.36 175.52 -184.36 173.41 C-184.36 172.24 -184.36 171.06 -184.36 169.85 C-184.23 167.25 -184.23 167.25 -183.23 166.25 C-183.05 164.52 -182.91 162.79 -182.79 161.06 C-182.44 156.82 -181.81 153.23 -180.23 149.25 C-179 145.79 -178.03 142.4 -177.29 138.81 C-176.42 134.7 -174.97 131.09 -173.23 127.25 C-172.8 125.89 -172.8 125.89 -172.36 124.5 C-170.99 120.56 -169.28 116.84 -167.52 113.06 C-166.37 110.56 -165.3 108.04 -164.23 105.5 C-162.67 101.94 -160.74 99.02 -158.39 95.94 C-157.19 94.19 -156.44 92.53 -155.67 90.56 C-154.22 87.23 -152.84 85.69 -150.23 83.25 C-149 81.12 -149 81.12 -148.23 79.25 C-147.57 79.25 -146.91 79.25 -146.23 79.25 C-146.23 78.26 -146.23 77.27 -146.23 76.25 C-145.57 76.25 -144.91 76.25 -144.23 76.25 C-143.98 75.71 -143.74 75.18 -143.48 74.62 C-141.93 71.67 -140.2 68.95 -138.23 66.25 C-137.57 66.25 -136.91 66.25 -136.23 66.25 C-136.23 65.59 -136.23 64.93 -136.23 64.25 C-134.86 62.62 -134.86 62.62 -133.23 61.25 C-132.57 61.25 -131.91 61.25 -131.23 61.25 C-130.98 60.67 -130.74 60.09 -130.48 59.5 C-129.05 56.92 -127.45 55.19 -125.23 53.25 C-124.57 53.25 -123.91 53.25 -123.23 53.25 C-123.23 52.59 -123.23 51.93 -123.23 51.25 C-121.86 49.62 -121.86 49.62 -120.23 48.25 C-119.57 48.25 -118.91 48.25 -118.23 48.25 C-118.23 47.59 -118.23 46.93 -118.23 46.25 C-116.55 44.74 -116.55 44.74 -114.36 43.12 C-113.64 42.59 -112.92 42.05 -112.18 41.49 C-110.23 40.25 -110.23 40.25 -108.23 40.25 C-108.23 39.59 -108.23 38.93 -108.23 38.25 C-107.24 38.25 -106.25 38.25 -105.23 38.25 C-105.23 37.59 -105.23 36.93 -105.23 36.25 C-103.91 35.92 -102.59 35.59 -101.23 35.25 C-101.23 34.59 -101.23 33.93 -101.23 33.25 C-98.33 31.21 -96.83 30.25 -93.23 30.25 C-93.23 29.59 -93.23 28.93 -93.23 28.25 C-78.96 19.96 -65.11 13.01 -49.23 8.25 C-46.96 7.54 -44.69 6.83 -42.42 6.12 C-28.27 1.79 -14.82 -0.05 0 0 Z " fill="#F21431" transform="translate(184.232195854187,-0.24888896942138672)"/>
<path d="M0 0 C1.18 0 1.18 0 2.39 0 C14.57 0.05 26.39 0.61 38.31 3.31 C38.99 3.46 39.67 3.61 40.36 3.77 C72.13 11.01 100.36 28.66 119.31 55.31 C120.16 56.46 120.16 56.46 121.02 57.64 C173.44 130.25 186.9 244.57 204.72 330.21 C212.63 375.22 212.63 375.22 229.31 417.31 C229.68 417.97 230.04 418.62 230.42 419.3 C233.89 424.85 239.13 428.04 245.36 429.93 C252.06 431.23 259.61 430.77 265.38 426.94 C294.62 402.92 296.05 343.63 301.41 309.11 C308.5 263.52 317.15 217.94 328.8 173.28 C329.31 171.31 329.82 169.35 330.33 167.38 C332.57 158.67 334.91 149.98 337.31 141.31 C337.66 140.06 338 138.81 338.36 137.53 C354.28 80.29 354.28 80.29 366.31 62.31 C366.92 61.38 367.52 60.46 368.14 59.5 C369.8 57.05 371.52 54.67 373.31 52.31 C373.93 51.5 374.54 50.68 375.17 49.84 C393.84 25.71 422.33 9.06 452.31 3.31 C452.99 3.18 453.67 3.04 454.37 2.9 C467.22 0.45 480.02 -0 493.06 -0.06 C494.22 -0.07 494.22 -0.07 495.4 -0.09 C510.04 -0.2 524.41 1.5 538.5 5.62 C539.24 5.84 539.97 6.05 540.73 6.27 C576.08 16.72 608.86 39.13 630.31 69.31 C630.7 69.85 631.1 70.4 631.5 70.96 C647.67 93.44 660.35 117.1 669.31 143.31 C669.68 144.38 669.68 144.38 670.06 145.46 C684.53 187.09 690.65 231.79 696.31 275.31 C696.41 276.04 696.5 276.76 696.6 277.51 C708.04 364.09 708.63 452.44 699.31 685.31 C699.17 686.59 699.03 687.87 698.89 689.19 C696.11 714.43 691.2 738.73 675.31 759.31 C674.69 760.12 674.07 760.93 673.43 761.76 C664.39 772.64 653.07 779.2 639.31 782.31 C638.57 782.48 637.84 782.65 637.08 782.83 C618.28 786.9 595.11 787.63 578.14 777.4 C566.32 769.08 558.86 757.44 555.79 743.28 C554.71 736.58 554.52 729.77 554.16 723.01 C554.07 721.28 553.97 719.55 553.87 717.83 C553.61 713.18 553.35 708.54 553.1 703.9 C552.83 699.02 552.55 694.15 552.28 689.28 C551.94 683.33 551.61 677.39 551.28 671.45 C550.61 659.52 549.92 647.6 549.2 635.68 C549.12 634.23 549.03 632.79 548.94 631.35 C548.9 630.65 548.86 629.94 548.81 629.22 C548.77 628.52 548.73 627.83 548.69 627.11 C548.64 626.42 548.6 625.73 548.56 625.02 C546.11 584.38 544.15 543.72 542.37 503.05 C540.15 452.36 537.06 401.74 531.31 351.31 C531.23 350.6 531.15 349.89 531.07 349.16 C526.61 309.86 519.7 256.57 487.56 229 C477.14 221.14 463.33 218.36 450.43 219.72 C439.72 221.84 431.08 225.91 422.31 232.31 C421.72 232.74 421.12 233.17 420.51 233.61 C392.22 255.77 388.08 300.47 381.89 333.28 C381.3 336.39 380.7 339.49 380.11 342.6 C370.13 394.86 361.71 447.39 353.56 499.96 C353.19 502.37 352.82 504.78 352.44 507.19 C351.4 513.89 350.36 520.58 349.35 527.28 C347.31 540.74 345.08 554.13 342.27 567.45 C341.92 569.1 341.92 569.1 341.57 570.79 C335.62 598.02 323.15 629.2 298.81 645.06 C296.99 646.16 295.16 647.25 293.31 648.31 C292.64 648.7 291.98 649.09 291.29 649.5 C270.43 660.81 243.58 660.9 221.17 654.81 C219.6 654.39 218.01 654.02 216.43 653.66 C201.41 649.96 187.62 638.17 179.47 625.27 C171.71 612.2 164.98 598.41 159.31 584.31 C158.75 582.93 158.75 582.93 158.18 581.52 C156.9 578.33 155.63 575.14 154.38 571.94 C153.99 570.98 153.61 570.02 153.21 569.03 C144.94 547.62 139.46 525.48 134.65 503.08 C134.02 500.14 133.38 497.21 132.74 494.28 C126.69 466.54 120.98 438.74 115.3 410.93 C107.42 372.29 99.5 333.66 90.31 295.31 C89.89 293.54 89.89 293.54 89.47 291.74 C86.89 280.84 84.05 270.06 80.69 259.38 C80.41 258.49 80.13 257.61 79.85 256.7 C73.86 238.24 64.63 222.39 49 210.56 C36.4 204.7 21.56 204.34 8.31 208.25 C-4.28 213.07 -12.13 221.51 -17.65 233.51 C-25.67 251.54 -30 269.99 -33.69 289.31 C-33.87 290.21 -34.05 291.11 -34.23 292.04 C-41.36 328.33 -42.27 366.25 -43.57 403.14 C-43.69 406.44 -43.82 409.74 -43.94 413.04 C-45.76 461.2 -46.06 509.39 -46.33 557.58 C-46.56 597.68 -46.87 637.76 -49.06 677.81 C-49.16 679.64 -49.16 679.64 -49.26 681.49 C-50.06 696.47 -50.94 711.43 -52.19 726.38 C-52.29 727.68 -52.4 728.98 -52.51 730.32 C-53.12 737.05 -53.99 743.69 -55.13 750.34 C-55.25 751.03 -55.36 751.73 -55.48 752.45 C-56.63 758.86 -58.87 764.48 -61.69 770.31 C-61.98 771.03 -62.28 771.74 -62.58 772.47 C-65.33 778.79 -69.97 783.39 -74.69 788.31 C-75.42 789.12 -76.16 789.94 -76.92 790.77 C-87.76 802.34 -101.88 805.7 -117.31 806.44 C-137.52 806.88 -155.08 803.15 -170.44 789.12 C-190.91 767.02 -199 730.97 -203.69 702.31 C-203.86 701.26 -203.86 701.26 -204.04 700.19 C-210.83 659.1 -214.58 617.89 -216.69 576.31 C-216.74 575.27 -216.79 574.22 -216.85 573.15 C-220.45 501.31 -220.06 429.1 -215.69 357.31 C-215.54 354.84 -215.4 352.37 -215.25 349.9 C-212.09 297.15 -207.05 244.51 -198.69 192.31 C-198.52 191.25 -198.52 191.25 -198.34 190.16 C-197.05 182.15 -195.53 174.22 -193.69 166.31 C-193.43 165.22 -193.18 164.12 -192.92 163 C-184.99 129.65 -171.6 96.66 -150.69 69.31 C-150.1 68.51 -149.52 67.7 -148.92 66.87 C-138.42 52.88 -125.32 40.64 -110.48 31.44 C-108.83 30.4 -107.22 29.32 -105.61 28.22 C-83.96 13.91 -58.11 6.28 -32.69 2.31 C-31.58 2.13 -30.47 1.95 -29.33 1.77 C-19.51 0.31 -9.91 -0.05 0 0 Z " fill="#FDFDFD" transform="translate(394.6875,241.6875)"/>
</svg>
